
   General
      Complete name : Cougars.Inc.2011.PROPER.BRRip.XviD - CODY.avi
      Format : AVI
      Format/Info : Audio Video Interleave
      Format profile : OpenDML
      File size : 685 MiB
      Duration : 1h 22mn
      Overall bit rate : 1 168 Kbps
      Writing application : AVI-Mux GUI 1.17.8, Aug 30 2008  12:36:58

   Video #0
      ID : 0
      Format : MPEG-4 Visual
      Format profile : AdvancedSimple@L5
      Format settings, BVOP : Yes
      Format settings, QPel : No
      Format settings, GMC : No warppoints
      Format settings, Matrix : Default (H.263)
      Muxing mode : Packed bitstream
      Codec ID : XVID
      Codec ID/Hint : XviD
      Duration : 1h 22mn
      Bit rate : 1 054 Kbps
      Width : 720 pixels
      Height : 304 pixels
      Display aspect ratio : 2.35:1
      Frame rate : 23.976 fps
      Resolution : 24 bits
      Colorimetry : 4:2:0
      Scan type : Progressive
      Bits/(Pixel*Frame) : 0.201
      Stream size : 618 MiB (90%)
      Writing library : XviD 1.2.0.dev47 (UTC 2006-11-01)

   Audio #1
      ID : 1
      Format : MPEG Audio
      Format version : Version 1
      Format profile : Layer 3
      Codec ID : 55
      Codec ID/Hint : MP3
      Duration : 1h 22mn
      Bit rate mode : Variable
      Bit rate : 110 Kbps
      Nominal bit rate : 128 Kbps
      Channel(s) : 2 channels
      Sampling rate : 48.0 KHz
      Resolution : 16 bits
      Stream size : 64.4 MiB (9%)
      Alignment : Aligned on interleaves
      Interleave, duration : 24 ms (0.58 video frame)
      Interleave, preload duration : 77 ms
      Title : Cougars.Inc.2011.BRRip.XviD - CODY
      Writing library : LAME3.98r
      Encoding settings : -m j -V 4 -q 2 -lowpass 17 --abr 128





IMDB link                              http://www.imdb.com/title/tt1198075/



Please seed at least 1,5:1 .  This way this torrent has a chance to survive !!


Thanks. ENJOY !!!


